<svg width="49" height="38" viewBox="0 0 49 38" fill="none" xmlns="http://www.w3.org/2000/svg">
<path d="M24.2424 32.4727C10.85 32.4727 0 25.2061 0 16.2318C0 7.26818 10.85 0 24.2424 0C37.6348 0 48.4848 7.26818 48.4848 16.2318C48.4848 25.2061 37.6348 32.4727 24.2424 32.4727ZM27.9515 6.34545C17.7803 6.34545 9.52576 11.3167 9.52576 17.4485C9.52576 23.5803 17.7803 28.5515 27.9515 28.5515C38.1227 28.5515 45.6439 25.15 45.6439 17.4485C45.6439 9.74545 38.1303 6.34545 27.9515 6.34545ZM36.9152 25.15C37.7136 25.3864 38.4864 25.6788 39.2439 26.0273C39.6788 26.2394 40.0727 26.5242 40.4197 26.8636C40.6318 27.0924 40.8136 27.353 40.9545 27.6379L46.7409 37.3909H37.3894L33.0182 29.1833C32.6167 28.4667 32.1333 27.803 31.5742 27.203C31.2894 26.8879 30.8879 26.6985 30.4606 26.6985H28.2424V37.3833L19.9742 37.3909V10.0864H36.5848C36.5848 10.0864 44.147 10.2212 44.147 17.4182C44.1606 21.4985 40.997 24.8909 36.9167 25.1515L36.9152 25.15ZM33.3258 16.0045H28.3152V20.6455H33.3258C34.6288 20.6621 35.6848 19.5864 35.647 18.2864C35.7182 16.9758 34.6288 15.9106 33.3258 16.0061V16.0045Z" fill="black"/>
</svg>
