<svg xmlns="http://www.w3.org/2000/svg" fill="#fff" width="800" height="800" viewBox="0 0 50 50">
  <path d="M0 7v32h50V7Zm2 2h46v28H2Zm22 8c-3.309 0-6 2.914-6 6.5s2.691 6.5 6 6.5c1.54 0 2.938-.633 4-1.668V30h2v-6h-5v2h2.29c-.716 1.2-1.911 2-3.29 2-2.207 0-4-2.02-4-4.5s1.793-4.5 4-4.5c1.383 0 2.602.797 3.324 2h2.211c-.902-2.348-3.043-4-5.535-4ZM11 41a1.006 1.006 0 0 0-.879.496 1.01 1.01 0 0 0 0 1.008c.184.312.52.5.879.496h28c.36.004.695-.184.879-.496a1.01 1.01 0 0 0 0-1.008c-.184-.312-.52-.5-.879-.496Z" fill="#ffffff0"/>
</svg>
